# xmcd CD database file
#
# Track frame offsets:
#	150
#	11247
#	23947
#	36600
#	50552
#	64157
#	78195
#	93772
#	107652
#	121875
#	138347
#	150950
#
# Disc length: 2204 seconds
#
# Revision: 0
# Processed by: cddbd v1.5PL3 Copyright (c) Steve Scherf et al.
# Submitted via: CDex 1.50
#
DISCID=94089a0c
DTITLE=Various Artist - 精選上海歌謡倶楽部
DYEAR=1995
DGENRE=Pop
TTITLE0=イォウリィ/メイグェメイグェウォアイニー
TTITLE1=ウーインイン/大地回春
TTITLE2=チョウシュアン/何日君再來
TTITLE3=李香蘭/梅花
TTITLE4=白光/等着?回來
TTITLE5=張露/迎春花
TTITLE6=ブォンソンケイ/情人的眼涙
TTITLE7=葛蘭/曼波女郎
TTITLE8=葛蘭/我的天堂
TTITLE9=ジンティン・ツウイピン・ペイレェイ/今天不回家
TTITLE10=プォンソンケイ/スゥオラゥオホォィヅゥレン
TTITLE11=ペイレェイ/黙黙的相思
EXTD=YEAR: 1995
EXTT0=
EXTT1=
EXTT2=
EXTT3=
EXTT4=
EXTT5=
EXTT6=
EXTT7=
EXTT8=
EXTT9=
EXTT10=
EXTT11=
PLAYORDER=
